<svg width="26" height="37" viewBox="0 0 26 37" fill="none" xmlns="http://www.w3.org/2000/svg">
<path d="M12.2999 13.8017C11.7226 13.1405 11.7168 12.3092 11.0872 11.7301C9.91708 10.6504 9.96354 10.5358 11.3836 9.62039C12.453 8.93242 13.3442 8.28076 13.6096 6.80163C13.8208 5.63972 13.5418 4.18351 14.8204 3.25475C15.1614 3.00632 14.8533 2.30305 14.2353 2.28203C13.6038 2.26101 12.9141 2.25145 12.3465 2.47504C9.10148 3.77072 6.21485 5.52313 4.75218 8.87888C4.21554 10.1077 3.75446 11.369 3.25076 12.613C1.88884 15.9631 2.67344 19.1736 3.92494 22.342C4.0993 22.7854 4.49262 23.0893 5.037 23.1313C5.71119 23.1829 6.38536 23.2651 7.05954 23.332C7.87128 23.4161 8.46797 22.9956 8.85543 22.3898C9.3107 21.6789 8.44275 21.5987 8.14247 21.2776C7.25712 20.3336 7.37723 19.7144 8.52605 19.143C9.24867 18.7837 9.91512 18.3136 10.7734 17.7938C10.3801 17.6142 10.2077 17.5358 10.0372 17.4594C8.6501 16.8497 8.54937 16.3835 9.5684 15.3019C10.2716 14.5566 11.1899 14.1877 12.2999 13.8017V13.8017ZM12.9296 16.3357C14.0106 17.1479 13.999 17.7804 12.9393 18.7149C12.6468 18.971 12.1915 19.1067 12.4278 19.6188C12.8192 20.4692 12.3756 20.7693 11.6103 20.8878C11.2054 20.9489 10.6784 21.0062 11.0833 21.5795C11.496 22.1624 11.3294 22.6612 11.1318 23.244C10.6746 24.6028 10.9361 25.2659 11.9435 25.8774C13.0788 26.5654 14.3012 25.2678 15.4132 26.0704C15.4171 26.0724 15.5004 25.9443 15.5585 25.8946C17.2711 24.4518 18.6699 22.7587 19.7838 20.8285C22.1783 16.6797 24.1718 12.443 22.8428 7.46666C22.4728 6.07734 22.3043 4.62685 21.0063 3.61783C20.3592 3.11332 19.6385 3.42482 18.9836 3.09804C17.5946 2.40434 16.9727 2.76551 16.9534 4.33255C16.9262 6.34868 16.2966 8.15463 15.2931 9.85544C14.925 10.4784 15.0528 11.6518 15.6457 12.1066C17.0347 13.1768 16.9534 14.1457 15.4307 14.9426C14.6247 15.3649 13.8401 15.8255 12.9296 16.3357V16.3357ZM0 15.5675C0.275098 12.1009 0.691623 9.16554 2.47395 6.82836C4.52168 4.14337 6.78444 1.32842 10.3452 0.653832C13.7239 0.013639 17.2944 -0.697235 20.522 1.39725C22.961 2.98148 24.6871 5.24986 25.6771 7.88516C26.4307 9.886 25.7042 12.0626 25.1327 14.0348C24.0207 17.876 22.9319 21.7802 19.7683 24.6563C19.2317 25.1455 18.9624 25.9157 18.5401 26.5329C17.8078 27.605 16.9205 28.5739 15.5702 28.7593C12.7049 29.1568 9.84734 29.237 7.26103 27.5993C5.86229 26.7145 4.47716 25.8392 3.18303 24.769C2.27056 24.0123 1.75714 23.2268 1.50529 22.256C0.889229 19.8673 0.412647 17.4403 0 15.5675" fill="#333333"/>
<path d="M7.47146 33.2548C11.7452 32.9395 16.0266 32.9603 20.306 33.0849C21.3541 33.1132 22.4021 33.2 23.4502 33.268C23.6734 33.2831 23.9762 33.2548 23.9989 33.5625C24.0197 33.8344 23.7435 33.9552 23.5259 33.976C22.5932 34.0685 21.6888 34.1969 21.1686 35.122C18.9456 35.0163 17.3508 36.857 15.1279 36.9647C12.9655 37.0723 10.8523 36.9363 8.75798 36.5266C7.06287 36.1944 5.27877 36.0414 3.82204 34.9408C3.49853 34.6953 2.8553 34.533 3.02935 34.0893C3.20719 33.6324 3.69346 33.2473 4.31967 33.251C5.36965 33.2605 6.42147 33.2548 7.47146 33.2548Z" fill="#333333"/>
</svg>
