<svg width="91" height="101" viewBox="0 0 91 101" fill="none" xmlns="http://www.w3.org/2000/svg">
<g clip-path="url(#clip0_11_15)">
<path d="M8.50776 0.305451C7.94829 0.234181 7.37429 0.250158 6.78902 0.315217C6.69679 0.325469 6.60821 0.320672 6.51559 0.334748C5.84195 0.394732 5.18748 0.59074 4.59177 0.910916C4.221 1.1078 3.87649 1.3506 3.56639 1.63357C1.60454 3.10985 0.5 5.61644 0.5 7.77611V50.0708V93.215C0.5 95.3741 1.53048 98.133 4.00584 99.4747C6.4812 100.816 9.28293 100.208 11.1249 99.0939C11.1282 99.0906 11.1314 99.0874 11.1347 99.0841C10.8362 99.2661 12.5172 98.2878 14.6405 97.0822C16.7638 95.8766 19.7162 94.1992 23.2147 92.2189C30.2117 88.2584 39.4068 83.0604 48.6149 77.8538C57.8231 72.6472 67.0472 67.4393 74.0933 63.4496C77.6163 61.4547 80.5901 59.7679 82.7553 58.5375C84.9164 57.3094 85.9813 56.7061 86.6323 56.311C88.5724 55.1346 90.5389 52.8637 90.4994 49.934C90.4599 47.0043 88.4895 44.8677 86.6225 43.811C85.7869 43.3392 67.5424 33.0313 49.2887 22.7076C40.1619 17.5458 31.0345 12.3799 24.0643 8.4304C20.5792 6.45563 17.63 4.77834 15.4999 3.56715C13.3698 2.35595 11.7625 1.42714 11.9257 1.52615C11.9225 1.52614 11.9192 1.52614 11.9159 1.52615C10.9306 0.930817 9.7602 0.465 8.50776 0.305451ZM10.4999 17.0046L39.279 50.0415L10.4999 83.0881V50.0708V17.0046ZM28.4783 22.4244C33.6886 25.3726 38.6203 28.1587 44.3669 31.4088C48.0148 33.4719 48.5852 33.7948 51.8278 35.6275L45.9099 42.4243L28.4783 22.4244ZM60.7047 40.6372C66.5238 43.9243 75.3181 48.8978 77.394 50.0708C75.2669 51.2791 72.5123 52.8512 69.1617 54.7485C66.8337 56.0666 63.4686 57.9728 60.7437 59.514C60.647 59.3687 60.5427 59.2286 60.4313 59.0941L52.5407 50.0415L60.4313 40.979C60.5273 40.8691 60.6186 40.7551 60.7047 40.6372ZM45.9099 57.6586L51.8864 64.514C48.9941 66.1493 46.6561 67.4773 43.6931 69.1527C38.1238 72.3017 33.408 74.9732 28.3319 77.844L45.9099 57.6586Z" fill="#EDF2F4"/>
</g>
<defs>
<clipPath id="clip0_11_15">
<rect width="90" height="99.9825" fill="white" transform="translate(0.5 0.258759)"/>
</clipPath>
</defs>
</svg>
