<svg width="91" height="103" viewBox="0 0 91 103" fill="none" xmlns="http://www.w3.org/2000/svg">
<g clip-path="url(#clip0_11_17)">
<path d="M67.4693 0.725357C61.5862 1.06722 54.8323 4.34473 50.8167 8.51851C47.1889 12.3147 44.3266 17.9527 45.495 23.4072C51.8884 23.5756 58.3055 20.2132 62.1477 15.9629C65.7347 11.9881 68.4541 6.44007 67.4693 0.725357ZM67.8181 23.3973C58.5878 23.3973 54.7286 29.0677 48.3352 29.0677C41.7582 29.0677 35.7458 23.756 27.786 23.756C16.9587 23.7611 0.5 33.7907 0.5 57.4201C0.5 78.9166 19.9793 102.774 30.975 102.774C37.6541 102.84 39.2733 98.5744 48.3352 98.5285C57.4073 98.4622 59.3649 102.83 66.0542 102.774C73.5854 102.718 79.467 94.4418 83.7632 87.8851C86.8451 83.1909 88.1121 80.7944 90.5 75.4878C72.7793 70.9977 69.2535 42.4207 90.5 36.5121C86.4895 29.6697 74.7829 23.3973 67.8181 23.3973Z" fill="#EDF2F4"/>
</g>
<defs>
<clipPath id="clip0_11_17">
<rect width="90" height="102.049" fill="white" transform="translate(0.5 0.725357)"/>
</clipPath>
</defs>
</svg>
